<?xml version="1.0" encoding="UTF-8" standalone="no"?>
<svg
   xmlns:dc="http://purl.org/dc/elements/1.1/"
   xmlns:cc="http://creativecommons.org/ns#"
   xmlns:rdf="http://www.w3.org/1999/02/22-rdf-syntax-ns#"
   xmlns:svg="http://www.w3.org/2000/svg"
   xmlns="http://www.w3.org/2000/svg"
   xmlns:sodipodi="http://sodipodi.sourceforge.net/DTD/sodipodi-0.dtd"
   xmlns:inkscape="http://www.inkscape.org/namespaces/inkscape"
   id="svg"
   version="1.1"
   width="90"
   height="90"
   viewBox="0 0 90 90"
   inkscape:version="0.91 r13725"
   sodipodi:docname="location_max@3x.svg">
  <metadata
     id="metadata13">
    <rdf:RDF>
      <cc:Work
         rdf:about="">
        <dc:format>image/svg+xml</dc:format>
        <dc:type
           rdf:resource="http://purl.org/dc/dcmitype/StillImage" />
        <dc:title></dc:title>
      </cc:Work>
    </rdf:RDF>
  </metadata>
  <defs
     id="defs11" />
  <sodipodi:namedview
     pagecolor="#ffffff"
     bordercolor="#666666"
     borderopacity="1"
     objecttolerance="10"
     gridtolerance="10"
     guidetolerance="10"
     inkscape:pageopacity="0"
     inkscape:pageshadow="2"
     inkscape:window-width="1309"
     inkscape:window-height="791"
     id="namedview9"
     showgrid="false"
     inkscape:zoom="3"
     inkscape:cx="70.245249"
     inkscape:cy="3.1966147"
     inkscape:window-x="0"
     inkscape:window-y="0"
     inkscape:window-maximized="0"
     inkscape:current-layer="svg" />
  <g
     id="svgg"
     transform="matrix(0.28132095,0,0,0.28132095,-11.429149,-11.275542)"
     style="fill:#999999">
    <path
       id="path0"
       d="m 189.4,40.239 c -0.66,0.089 -3.36,0.453 -6,0.807 -39.176,5.264 -73.816,32.894 -88.707,70.754 -16.924,43.028 -6.871,89.051 33.741,154.476 13.748,22.147 34.915,51.175 48.935,67.109 6.135,6.972 11.276,13.068 17.98,21.315 2.37,2.915 4.452,5.3 4.628,5.3 0.176,0 3.178,-3.285 6.671,-7.3 7.178,-8.25 16.073,-18.142 20.592,-22.9 1.672,-1.76 5.704,-6.53 8.962,-10.6 68.205,-85.226 90.795,-153.461 68.87,-208.033 C 289.975,73.591 256.92,47.305 216.8,40.972 c -3.989,-0.629 -24.182,-1.17 -27.4,-0.733 m 19.246,62.78 c 40.472,7.058 56.27,57.592 27.118,86.745 -31.322,31.321 -84.638,10.098 -86.442,-34.409 -1.308,-32.277 27.683,-57.853 59.324,-52.336"
       inkscape:connector-curvature="0"
       style="fill:#999999;fill-rule:evenodd;stroke:none" />
    <path
       id="path1"
       d="m 189.4,40.239 c -0.66,0.089 -3.36,0.453 -6,0.807 -39.176,5.264 -73.816,32.894 -88.707,70.754 -16.924,43.028 -6.871,89.051 33.741,154.476 13.748,22.147 34.915,51.175 48.935,67.109 6.135,6.972 11.276,13.068 17.98,21.315 2.37,2.915 4.452,5.3 4.628,5.3 0.176,0 3.178,-3.285 6.671,-7.3 7.178,-8.25 16.073,-18.142 20.592,-22.9 1.672,-1.76 5.704,-6.53 8.962,-10.6 68.205,-85.226 90.795,-153.461 68.87,-208.033 C 289.975,73.591 256.92,47.305 216.8,40.972 c -3.989,-0.629 -24.182,-1.17 -27.4,-0.733 m 19.246,62.78 c 40.472,7.058 56.27,57.592 27.118,86.745 -31.322,31.321 -84.638,10.098 -86.442,-34.409 -1.308,-32.277 27.683,-57.853 59.324,-52.336"
       inkscape:connector-curvature="0"
       style="fill:#999999;fill-rule:evenodd;stroke:none" />
    <path
       id="path2"
       d="m 189.4,40.239 c -0.66,0.089 -3.36,0.453 -6,0.807 -39.176,5.264 -73.816,32.894 -88.707,70.754 -16.924,43.028 -6.871,89.051 33.741,154.476 13.748,22.147 34.915,51.175 48.935,67.109 6.135,6.972 11.276,13.068 17.98,21.315 2.37,2.915 4.452,5.3 4.628,5.3 0.176,0 3.178,-3.285 6.671,-7.3 7.178,-8.25 16.073,-18.142 20.592,-22.9 1.672,-1.76 5.704,-6.53 8.962,-10.6 68.205,-85.226 90.795,-153.461 68.87,-208.033 C 289.975,73.591 256.92,47.305 216.8,40.972 c -3.989,-0.629 -24.182,-1.17 -27.4,-0.733 m 19.246,62.78 c 40.472,7.058 56.27,57.592 27.118,86.745 -31.322,31.321 -84.638,10.098 -86.442,-34.409 -1.308,-32.277 27.683,-57.853 59.324,-52.336"
       inkscape:connector-curvature="0"
       style="fill:#999999;fill-rule:evenodd;stroke:none" />
    <path
       id="path3"
       d="m 189.4,40.239 c -0.66,0.089 -3.36,0.453 -6,0.807 -39.176,5.264 -73.816,32.894 -88.707,70.754 -16.924,43.028 -6.871,89.051 33.741,154.476 13.748,22.147 34.915,51.175 48.935,67.109 6.135,6.972 11.276,13.068 17.98,21.315 2.37,2.915 4.452,5.3 4.628,5.3 0.176,0 3.178,-3.285 6.671,-7.3 7.178,-8.25 16.073,-18.142 20.592,-22.9 1.672,-1.76 5.704,-6.53 8.962,-10.6 68.205,-85.226 90.795,-153.461 68.87,-208.033 C 289.975,73.591 256.92,47.305 216.8,40.972 c -3.989,-0.629 -24.182,-1.17 -27.4,-0.733 m 19.246,62.78 c 40.472,7.058 56.27,57.592 27.118,86.745 -31.322,31.321 -84.638,10.098 -86.442,-34.409 -1.308,-32.277 27.683,-57.853 59.324,-52.336"
       inkscape:connector-curvature="0"
       style="fill:#999999;fill-rule:evenodd;stroke:none" />
    <path
       id="path4"
       d="m 189.4,40.239 c -0.66,0.089 -3.36,0.453 -6,0.807 -39.176,5.264 -73.816,32.894 -88.707,70.754 -16.924,43.028 -6.871,89.051 33.741,154.476 13.748,22.147 34.915,51.175 48.935,67.109 6.135,6.972 11.276,13.068 17.98,21.315 2.37,2.915 4.452,5.3 4.628,5.3 0.176,0 3.178,-3.285 6.671,-7.3 7.178,-8.25 16.073,-18.142 20.592,-22.9 1.672,-1.76 5.704,-6.53 8.962,-10.6 68.205,-85.226 90.795,-153.461 68.87,-208.033 C 289.975,73.591 256.92,47.305 216.8,40.972 c -3.989,-0.629 -24.182,-1.17 -27.4,-0.733 m 19.246,62.78 c 40.472,7.058 56.27,57.592 27.118,86.745 -31.322,31.321 -84.638,10.098 -86.442,-34.409 -1.308,-32.277 27.683,-57.853 59.324,-52.336"
       inkscape:connector-curvature="0"
       style="fill:#999999;fill-rule:evenodd;stroke:none" />
  </g>
</svg>
